<?xml version="1.0" standalone="no"?>
<!DOCTYPE svg PUBLIC "-//W3C//DTD SVG 20010904//EN"
 "http://www.w3.org/TR/2001/REC-SVG-20010904/DTD/svg10.dtd">
<svg version="1.0" xmlns="http://www.w3.org/2000/svg"
 width="300.000000pt" height="100.000000pt" viewBox="0 0 300.000000 100.000000"
 preserveAspectRatio="xMidYMid meet">
<metadata>
Created by potrace 1.10, written by Peter Selinger 2001-2011
</metadata>
<g transform="translate(0.000000,100.000000) scale(0.100000,-0.100000)"
fill="#000000" stroke="none">
<path d="M569 723 c-76 -208 -83 -221 -109 -225 -26 -4 -26 -4 -22 58 4 53 1
65 -17 83 -47 47 -95 14 -151 -104 -26 -53 -48 -85 -60 -88 -24 -6 -27 -27 -4
-27 12 0 14 -5 9 -17 -4 -10 -10 -44 -13 -77 -7 -83 15 -70 39 22 10 40 21 76
23 81 3 5 25 11 48 15 24 4 53 9 65 12 l21 6 -24 -82 c-27 -94 -34 -151 -18
-157 7 -2 22 44 40 117 22 92 33 122 47 126 28 9 28 3 6 -56 -32 -84 -9 -84
54 1 56 75 97 119 97 103 0 -5 -9 -33 -21 -63 -26 -70 -23 -105 12 -109 18 -2
36 6 57 27 18 16 32 25 32 21 0 -19 34 -40 64 -40 23 0 41 9 60 29 19 20 40
30 67 33 34 3 38 1 41 -22 3 -21 9 -25 39 -28 31 -3 41 2 72 38 21 22 37 37
37 33 -1 -26 -30 -87 -46 -96 -116 -63 -175 -217 -84 -217 38 0 70 42 105 137
l27 72 69 28 c38 15 69 34 69 41 0 17 -21 15 -75 -8 -26 -11 -48 -20 -50 -20
-1 0 8 37 21 82 13 45 24 86 24 90 0 20 -31 5 -44 -20 -29 -55 -96 -132 -116
-132 -25 0 -25 16 0 87 24 67 24 73 7 73 -7 0 -19 -17 -26 -37 -18 -50 -39
-73 -68 -73 -20 0 -23 5 -23 34 0 41 -37 76 -80 76 -30 0 -90 -57 -90 -85 0
-20 -59 -85 -77 -85 -10 0 -13 6 -9 17 29 75 38 117 29 132 -19 30 -43 24 -85
-21 l-40 -43 17 35 c30 59 94 233 89 242 -10 16 -25 8 -35 -19z m-171 -105
c13 -13 15 -49 6 -96 -5 -27 -11 -31 -62 -41 -30 -6 -57 -9 -59 -7 -7 6 47
109 70 134 24 25 29 26 45 10z m385 -176 l22 -24 -24 -19 c-33 -27 -60 -24
-72 7 -11 32 -6 52 24 91 l22 28 3 -30 c2 -17 13 -41 25 -53z m35 32 l2 -29
-20 24 c-11 12 -17 27 -14 33 11 17 29 2 32 -28z m202 -179 c0 -3 -12 -29 -26
-58 -41 -81 -74 -111 -74 -66 0 28 16 58 53 97 28 29 47 40 47 27z"/>
<path d="M2034 586 c-3 -8 -4 -65 -2 -126 3 -115 9 -129 51 -130 24 0 21 27
-4 33 -19 5 -20 11 -18 118 2 80 -1 114 -9 117 -7 2 -15 -3 -18 -12z"/>
<path d="M2140 481 c0 -127 8 -151 51 -151 25 0 25 26 -1 33 -19 5 -20 14 -20
121 0 96 -3 116 -15 116 -12 0 -15 -20 -15 -119z"/>
<path d="M1300 560 c-23 -23 -26 -72 -5 -90 8 -6 36 -17 62 -24 40 -10 49 -16
51 -37 6 -55 -72 -68 -96 -16 -14 29 -42 37 -42 11 0 -27 56 -74 89 -74 40 0
84 38 84 74 0 37 -20 54 -79 69 -42 10 -49 16 -52 39 -5 39 36 58 73 34 14 -9
25 -21 25 -26 0 -6 7 -10 15 -10 22 0 18 23 -8 48 -30 29 -89 30 -117 2z"/>
<path d="M2330 455 c0 -104 2 -125 15 -125 12 0 15 13 15 60 l0 60 50 0 c28 0
50 5 50 10 0 6 -22 10 -50 10 l-50 0 0 40 0 40 60 0 c47 0 60 3 60 15 0 12
-15 15 -75 15 l-75 0 0 -125z"/>
<path d="M1490 425 c0 -78 3 -95 15 -95 12 0 15 14 15 70 0 63 2 71 24 85 19
13 29 14 45 5 18 -9 21 -20 21 -85 0 -60 3 -75 15 -75 12 0 15 14 15 65 0 52
4 69 20 85 24 24 29 24 58 4 19 -13 22 -24 22 -85 0 -55 3 -69 15 -69 12 0 15
15 15 75 0 62 -4 79 -20 95 -26 26 -72 26 -95 0 l-18 -20 -14 20 c-19 27 -66
26 -94 -2 l-21 -23 7 23 c5 16 2 22 -9 22 -13 0 -16 -15 -16 -95z"/>
<path d="M1831 494 c-25 -31 -27 -83 -6 -123 23 -46 71 -55 105 -21 20 20 20
20 20 0 0 -11 7 -20 15 -20 12 0 15 17 15 95 0 78 -3 95 -15 95 -8 0 -15 -7
-15 -17 0 -15 -1 -15 -18 0 -29 26 -77 22 -101 -9z m99 -14 c56 -56 -13 -156
-72 -103 -37 33 -10 123 37 123 8 0 24 -9 35 -20z"/>
<path d="M2510 425 c0 -78 3 -95 15 -95 12 0 15 14 15 68 0 70 10 92 42 92 10
0 18 7 18 15 0 8 -6 15 -14 15 -8 0 -21 -7 -30 -15 -8 -8 -17 -15 -20 -15 -3
0 -3 7 0 15 4 9 0 15 -10 15 -14 0 -16 -14 -16 -95z"/>
<path d="M2620 515 c0 -3 14 -42 31 -87 35 -90 33 -130 -9 -136 -25 -4 -29
-20 -8 -28 31 -12 53 18 103 135 43 102 48 121 33 121 -12 0 -24 -20 -41 -70
-13 -38 -26 -70 -29 -70 -3 0 -16 32 -29 70 -14 44 -28 70 -37 70 -8 0 -14 -2
-14 -5z"/>
</g>
</svg>
